<?xml version="1.0" encoding="utf-8" ?><svg xmlns="http://www.w3.org/2000/svg" xmlns:xlink="http://www.w3.org/1999/xlink" width="1024" height="1024" viewBox="0 0 1024 1024"><path fill="white" d="M0 0L1024 0L1024 1024L0 1024L0 0Z"/><path fill="#593522" d="M512.193 122.874C513.613 124.643 521.052 144.993 523.158 149.628C529.828 164.502 538.333 178.483 548.477 191.244C569.372 217.851 596.31 240.377 629.171 250.612C637.037 253.062 644.78 254.1 652.903 255.078C656.766 283.497 658.931 314.254 662.171 343.103C668.696 346.239 682.382 350.31 689.801 352.807L738.531 369.359C737.073 375.67 733.284 385.878 731.077 392.262C725.147 409.414 718.648 425.838 713.589 443.323C728.444 446.908 743.607 450.591 758.512 453.931C770.689 456.66 782.249 458.896 794.464 461.925C786.02 470.238 776.068 478.739 767.311 487.133C740.498 512.583 714.645 539.026 689.805 566.405L618.037 566.443C605.753 566.451 581.959 565.338 571.042 568.174C541.031 575.97 528.474 610.459 528.275 638.752C527.961 683.613 543.885 716.428 574.978 747.967L506.25 748.015C485.463 748.124 464.675 747.968 443.892 747.546C473.475 726.199 490.534 694.394 495.136 658.407C499.18 626.782 489.604 575.1 452.829 566.492C442.674 564.115 420.139 565.152 408.56 565.167L333.55 565.191C326.853 557.229 313.998 544.117 306.315 536.238C282.528 511.844 255.462 483.611 229.532 461.745C233.342 461.186 237.223 460.351 240.969 459.438C264.237 453.766 287.998 449.176 311.161 443.217C308.624 434.688 304.311 423.614 301.323 414.892C296.184 399.891 291.004 384.204 285.188 369.533C297.755 365.596 310.291 361.03 322.812 356.875C335.988 352.502 349.234 348.29 362.303 343.615C363.063 339.049 363.637 333.895 364.045 329.253C366.21 304.657 370.539 279.492 372.13 254.9C386.876 253.119 397.809 250.811 411.589 244.254C448.396 226.74 477.032 195.979 496.199 160.407C503.091 147.615 507.31 136.393 512.193 122.874Z"/><path fill="white" d="M480.103 221.765C495.088 206.095 500.619 197.295 512.424 179.216C523.397 195.184 529.567 207.148 544.323 221.546L547.116 224.497C561.987 239.592 573.45 248.794 591.862 259.542C592.657 259.955 592.893 260.079 593.62 260.562C591.925 264.597 579.956 303.617 579.812 306.845C578.962 307.751 578.638 307.856 577.536 308.523L577.05 308.822C567.984 317.17 546.898 324.625 534.606 326.546L532.684 326.807C520.552 328.475 504.685 329.2 492.523 326.898L490.184 326.598C474.928 323.667 460.954 318.866 448.464 309.383C447.116 308.648 446.753 308.555 445.736 307.444C445.568 304.797 441.316 292.687 440.217 289.333C437.159 280.006 434.862 269.255 431.61 260.145C432.163 259.809 432.666 259.518 433.227 259.2C449.712 249.678 464.77 237.876 477.955 224.144L480.103 221.765Z"/><path fill="white" d="M477.955 224.144C479.071 226.591 489.824 319.389 490.184 326.598C474.928 323.667 460.954 318.866 448.464 309.383C447.116 308.648 446.753 308.555 445.736 307.444C445.568 304.797 441.316 292.687 440.217 289.333C437.159 280.006 434.862 269.255 431.61 260.145C432.163 259.809 432.666 259.518 433.227 259.2C449.712 249.678 464.77 237.876 477.955 224.144Z"/><path fill="#F6B769" d="M433.227 259.2C435.867 267.155 438.337 275.165 440.638 283.224C443.052 291.949 446.162 300.966 448.464 309.383C447.116 308.648 446.753 308.555 445.736 307.444C445.568 304.797 441.316 292.687 440.217 289.333C437.159 280.006 434.862 269.255 431.61 260.145C432.163 259.809 432.666 259.518 433.227 259.2Z"/><path fill="white" d="M547.116 224.497C561.987 239.592 573.45 248.794 591.862 259.542C592.657 259.955 592.893 260.079 593.62 260.562C591.925 264.597 579.956 303.617 579.812 306.845C578.962 307.751 578.638 307.856 577.536 308.523L577.05 308.822C567.984 317.17 546.898 324.625 534.606 326.546C535.443 321.062 535.956 314.244 536.666 308.523C539.115 289.031 541.394 269.519 543.501 249.988C543.949 246.163 545.839 227.184 547.116 224.497Z"/><path fill="#F6B769" d="M591.862 259.542C592.657 259.955 592.893 260.079 593.62 260.562C591.925 264.597 579.956 303.617 579.812 306.845C578.962 307.751 578.638 307.856 577.536 308.523L577.05 308.822C580.94 295.288 587.207 271.905 591.862 259.542Z"/><path fill="#F6B769" d="M480.103 221.765C482.72 239.095 484.253 259.504 486.418 277.242C488.162 291.536 491.799 312.99 492.523 326.898L490.184 326.598C489.824 319.389 479.071 226.591 477.955 224.144L480.103 221.765Z"/><path fill="#F6B769" d="M544.323 221.546L547.116 224.497C545.839 227.184 543.949 246.163 543.501 249.988C541.394 269.519 539.115 289.031 536.666 308.523C535.956 314.244 535.443 321.062 534.606 326.546L532.684 326.807C536.798 293.021 541.696 255.413 544.323 221.546Z"/><path fill="white" d="M517.375 418.053C519.901 414.039 527.922 404.23 531.372 401.087C536.727 396.209 544 396.899 550.662 397.569L552.979 397.757C563.023 399.933 568.546 404.822 569.212 415.683L569.824 419.375C572.417 432.731 572.5 450.978 564.208 462.538C554.115 476.609 541.374 489.326 529.856 502.239C527.179 505.239 524.043 508.739 521.175 511.525C519.194 513.965 514.879 519.86 512.247 520.81C511.143 520.367 511.472 520.585 510.682 519.577L510.258 519.156C508.971 517.651 507.72 516.447 506.318 515.048C505.045 513.904 504.955 513.731 503.982 512.405C503.043 511.381 502.097 510.363 501.144 509.352C490.38 496.405 478.551 484.265 467.458 471.563C453.292 455.342 452.079 440.572 455.218 419.847L455.943 416.006C455.813 405.179 462.639 400.162 472.112 397.698L474.369 397.516C481.63 397.175 488.954 396.515 494.63 402.091C497.986 405.387 504.983 413.91 507.731 417.95C508.487 418.695 509.184 419.314 509.715 420.245C511.179 421.924 511.257 422.678 512.933 422.937C513.954 421.996 514.378 421.55 515.28 420.493L517.375 418.053Z"/><path fill="white" d="M474.369 397.516C481.63 397.175 488.954 396.515 494.63 402.091C497.986 405.387 504.983 413.91 507.731 417.95C508.487 418.695 509.184 419.314 509.715 420.245C509.036 420.993 511.198 455.755 511.055 460.311C510.723 463.167 510.602 466.323 510.908 469.191C510.691 469.32 509.906 469.074 509.598 469.008C509.926 473.382 509.962 477.421 510.042 481.802C510.303 491.455 510.694 500.227 510.438 509.975C511.498 511.419 511.809 516.249 509.553 517.721C509.881 518.116 510.061 518.68 510.258 519.156C508.971 517.651 507.72 516.447 506.318 515.048C505.045 513.904 504.955 513.731 503.982 512.405C503.043 511.381 502.097 510.363 501.144 509.352C490.38 496.405 478.551 484.265 467.458 471.563C453.292 455.342 452.079 440.572 455.218 419.847L455.943 416.006C455.813 405.179 462.639 400.162 472.112 397.698L474.369 397.516Z"/><path fill="white" d="M474.369 397.516C481.63 397.175 488.954 396.515 494.63 402.091C497.986 405.387 504.983 413.91 507.731 417.95C508.487 418.695 509.184 419.314 509.715 420.245C509.036 420.993 511.198 455.755 511.055 460.311C510.723 463.167 510.602 466.323 510.908 469.191C510.691 469.32 509.906 469.074 509.598 469.008C509.926 473.382 509.962 477.421 510.042 481.802C510.303 491.455 510.694 500.227 510.438 509.975C506.573 507.815 478.659 409.201 474.369 397.516Z"/><path fill="#F6B769" d="M507.731 417.95C508.487 418.695 509.184 419.314 509.715 420.245C509.036 420.993 511.198 455.755 511.055 460.311C510.723 463.167 510.602 466.323 510.908 469.191C510.691 469.32 509.906 469.074 509.598 469.008C509.315 453.558 507.012 432.674 507.731 417.95Z"/><path fill="white" d="M455.218 419.847C458.337 423.598 469.687 446.845 472.59 452.117C482.654 470.393 492.089 489.832 502.52 507.869L501.144 509.352C490.38 496.405 478.551 484.265 467.458 471.563C453.292 455.342 452.079 440.572 455.218 419.847Z"/><path fill="#F6B769" d="M472.112 397.698L474.369 397.516C478.659 409.201 506.573 507.815 510.438 509.975C511.498 511.419 511.809 516.249 509.553 517.721C509.881 518.116 510.061 518.68 510.258 519.156C508.971 517.651 507.72 516.447 506.318 515.048C506.751 511.012 507.017 512.504 504.901 508.497L506.362 507.534C498.091 482.752 491.078 457.474 482.907 432.673C480.112 424.189 475.625 404.894 472.112 397.698Z"/><path fill="#F7E5C4" d="M506.362 507.534C508.133 511.687 507.611 514.276 509.553 517.721C509.881 518.116 510.061 518.68 510.258 519.156C508.971 517.651 507.72 516.447 506.318 515.048C506.751 511.012 507.017 512.504 504.901 508.497L506.362 507.534Z"/><path fill="#F6B769" d="M455.943 416.006L504.901 508.497C507.017 512.504 506.751 511.012 506.318 515.048C505.045 513.904 504.955 513.731 503.982 512.405C503.043 511.381 502.097 510.363 501.144 509.352L502.52 507.869C492.089 489.832 482.654 470.393 472.59 452.117C469.687 446.845 458.337 423.598 455.218 419.847L455.943 416.006Z"/><path fill="#FEF9E9" d="M502.52 507.869C503.825 509.084 504.007 510.758 503.982 512.405C503.043 511.381 502.097 510.363 501.144 509.352L502.52 507.869Z"/><path fill="white" d="M517.375 418.053C519.901 414.039 527.922 404.23 531.372 401.087C536.727 396.209 544 396.899 550.662 397.569L526.608 475.773C522.811 487.843 519.435 500.112 514.853 511.944C514.052 512.045 514.26 512.074 514.004 512C511.375 513.927 513.189 514.031 512.207 515.723C511.389 516.028 511.542 518.35 510.682 519.577L510.258 519.156C510.061 518.68 509.881 518.116 509.553 517.721C511.809 516.249 511.498 511.419 510.438 509.975C510.694 500.227 510.303 491.455 510.042 481.802C509.962 477.421 509.926 473.382 509.598 469.008C509.906 469.074 510.691 469.32 510.908 469.191C510.602 466.323 510.723 463.167 511.055 460.311C511.198 455.755 509.036 420.993 509.715 420.245C511.179 421.924 511.257 422.678 512.933 422.937C513.954 421.996 514.378 421.55 515.28 420.493L517.375 418.053Z"/><defs><linearGradient id="gradient_0" gradientUnits="userSpaceOnUse" x1="498.18863" y1="460.92572" x2="525.6803" y2="438.01688"><stop offset="0" stop-color="#FEFDE2"/><stop offset="1" stop-color="white"/></linearGradient></defs><path fill="url(#gradient_0)" d="M509.715 420.245C511.179 421.924 511.257 422.678 512.933 422.937C513.954 421.996 514.378 421.55 515.28 420.493C515.538 424.604 514.963 431.437 514.738 435.861L513.566 462.966C513.341 468.097 512.771 475.301 513.031 480.189L511.778 479.32C511.058 481.496 512.032 482.463 510.042 481.802C509.962 477.421 509.926 473.382 509.598 469.008C509.906 469.074 510.691 469.32 510.908 469.191C510.602 466.323 510.723 463.167 511.055 460.311C511.198 455.755 509.036 420.993 509.715 420.245Z"/><path fill="#F6B769" d="M511.055 460.311C511.544 463.357 512.356 476.441 511.778 479.32C511.058 481.496 512.032 482.463 510.042 481.802C509.962 477.421 509.926 473.382 509.598 469.008C509.906 469.074 510.691 469.32 510.908 469.191C510.602 466.323 510.723 463.167 511.055 460.311Z"/><path fill="#C9A959" d="M511.778 479.32L513.031 480.189C513.421 483.06 513.324 485.258 513.93 488.277C514.288 492.806 514.113 506.92 514.004 512C511.375 513.927 513.189 514.031 512.207 515.723C511.389 516.028 511.542 518.35 510.682 519.577L510.258 519.156C510.061 518.68 509.881 518.116 509.553 517.721C511.809 516.249 511.498 511.419 510.438 509.975C510.694 500.227 510.303 491.455 510.042 481.802C512.032 482.463 511.058 481.496 511.778 479.32Z"/><path fill="#F6B769" d="M517.375 418.053C517.335 440.091 514.729 465.867 513.93 488.277C513.324 485.258 513.421 483.06 513.031 480.189C512.771 475.301 513.341 468.097 513.566 462.966L514.738 435.861C514.963 431.437 515.538 424.604 515.28 420.493L517.375 418.053Z"/><path fill="white" d="M569.824 419.375C572.417 432.731 572.5 450.978 564.208 462.538C554.115 476.609 541.374 489.326 529.856 502.239C527.179 505.239 524.043 508.739 521.175 511.525C521.273 509.432 549.164 458.506 552.917 451.428C556.4 444.901 559.84 438.352 563.238 431.781C565.098 428.153 567.66 422.572 569.824 419.375Z"/><path fill="#F6B769" d="M550.662 397.569L552.979 397.757C542.095 430.931 532.502 464.512 521.701 497.72C520.214 502.29 518.223 507.182 517.016 511.783L517.382 512.336L516.86 512.461L516.909 513.322C530.432 490.152 542.55 466.921 554.815 443.08C559.409 434.15 564.893 424.529 569.212 415.683L569.824 419.375C567.66 422.572 565.098 428.153 563.238 431.781C559.84 438.352 556.4 444.901 552.917 451.428C549.164 458.506 521.273 509.432 521.175 511.525C519.194 513.965 514.879 519.86 512.247 520.81C511.143 520.367 511.472 520.585 510.682 519.577C511.542 518.35 511.389 516.028 512.207 515.723C513.189 514.031 511.375 513.927 514.004 512C514.26 512.074 514.052 512.045 514.853 511.944C519.435 500.112 522.811 487.843 526.608 475.773L550.662 397.569Z"/><path fill="white" d="M431.61 260.145C434.862 269.255 437.159 280.006 440.217 289.333C441.316 292.687 445.568 304.797 445.736 307.444C443.235 305.563 441.362 304.016 439.004 301.965C442.086 313.607 451.038 336.326 446.987 346.989C443.32 356.642 441.012 367.494 437.654 377.077L436.667 380.374C433.023 393.656 430.653 407.371 428.552 420.968L428.175 423.138C427.211 429.98 426.335 436.246 425.767 443.124C423.937 441.235 422 439.355 420.108 437.52C402.108 420.061 385.412 401.298 368.04 383.22C363.623 378.624 359.203 373.877 355.047 369.04C362.263 366.317 369.505 363.663 376.772 361.078L379.019 360.471C380.21 360.229 380.493 360.125 381.634 359.688C382.598 358.184 390.21 300.673 391.19 293.61C391.336 293.115 391.654 290.668 391.753 290.013C392.247 284.987 393.047 279.628 393.706 274.594C409.389 270.286 416.944 267.851 431.61 260.145Z"/><path fill="white" d="M431.61 260.145C434.862 269.255 437.159 280.006 440.217 289.333C441.316 292.687 445.568 304.797 445.736 307.444C443.235 305.563 441.362 304.016 439.004 301.965C442.086 313.607 451.038 336.326 446.987 346.989C443.32 356.642 441.012 367.494 437.654 377.077L436.667 380.374L403.241 315.694C401.572 312.45 393.071 294.754 391.19 293.61C391.336 293.115 391.654 290.668 391.753 290.013C392.247 284.987 393.047 279.628 393.706 274.594C409.389 270.286 416.944 267.851 431.61 260.145Z"/><path fill="#F6B769" d="M391.753 290.013C395.652 294.889 405.256 315.576 408.757 322.049C416.132 335.683 423.317 350.147 431.14 363.672C432.983 366.858 436.126 374.987 437.654 377.077L436.667 380.374L403.241 315.694C401.572 312.45 393.071 294.754 391.19 293.61C391.336 293.115 391.654 290.668 391.753 290.013Z"/><path fill="white" d="M376.772 361.078L379.019 360.471C392.964 378.9 408.611 396.394 423.351 414.197C425.163 416.385 426.912 418.649 428.552 420.968L428.175 423.138C427.211 429.98 426.335 436.246 425.767 443.124C423.937 441.235 422 439.355 420.108 437.52C402.108 420.061 385.412 401.298 368.04 383.22C363.623 378.624 359.203 373.877 355.047 369.04C362.263 366.317 369.505 363.663 376.772 361.078Z"/><path fill="#F6B769" d="M376.772 361.078L379.019 360.471C392.964 378.9 408.611 396.394 423.351 414.197C425.163 416.385 426.912 418.649 428.552 420.968L428.175 423.138C424.057 418.784 420.527 413.5 416.49 409.055C402.563 393.721 390.292 376.661 376.772 361.078Z"/><path fill="white" d="M593.62 260.562C606.216 267.189 618.046 271.945 632.237 274.291C632.772 278.321 633.254 282.357 633.683 286.399C633.81 287.921 634.042 289.971 634.036 291.445C637.414 313.811 638.951 336.628 642.591 358.956C642.706 359.663 644.927 360.337 645.481 360.513L647.518 361.302C654.883 364.065 662.289 366.717 669.733 369.257C652.628 388.022 635.511 406.434 617.57 424.397C611.353 430.622 605.853 437.138 599.374 443.36C598.89 436.081 598.138 430.415 597.07 423.166L596.69 420.96C594.323 406.344 591.886 393.526 588.045 379.151L587.248 376.445C586.287 373.832 585.431 370.573 584.681 367.868C582.082 358.499 579.077 349.438 575.883 340.253C578.343 330.04 583.484 311.222 586.842 301.472C584.299 303.58 582.538 304.986 579.812 306.845C579.956 303.617 591.925 264.597 593.62 260.562Z"/><path fill="white" d="M593.62 260.562C606.216 267.189 618.046 271.945 632.237 274.291C632.772 278.321 633.254 282.357 633.683 286.399C633.81 287.921 634.042 289.971 634.036 291.445C627.93 304.221 620.456 316.819 614.178 329.56C608.611 340.857 602.687 352.039 596.703 363.12C594.096 367.948 591.016 374.679 588.045 379.151L587.248 376.445C586.287 373.832 585.431 370.573 584.681 367.868C582.082 358.499 579.077 349.438 575.883 340.253C578.343 330.04 583.484 311.222 586.842 301.472C584.299 303.58 582.538 304.986 579.812 306.845C579.956 303.617 591.925 264.597 593.62 260.562Z"/><path fill="#F6B769" d="M633.683 286.399C633.81 287.921 634.042 289.971 634.036 291.445C627.93 304.221 620.456 316.819 614.178 329.56C608.611 340.857 602.687 352.039 596.703 363.12C594.096 367.948 591.016 374.679 588.045 379.151L587.248 376.445C591.108 370.96 594.585 363.719 597.592 357.659C608.83 335.014 621.128 312.933 632.641 290.436C633.382 288.988 633.561 287.979 633.683 286.399Z"/><path fill="white" d="M645.481 360.513L647.518 361.302C654.883 364.065 662.289 366.717 669.733 369.257C652.628 388.022 635.511 406.434 617.57 424.397C611.353 430.622 605.853 437.138 599.374 443.36C598.89 436.081 598.138 430.415 597.07 423.166L596.69 420.96C598.526 420.283 639.27 367.699 645.481 360.513Z"/><path fill="#F6B769" d="M645.481 360.513L647.518 361.302C643.902 365.398 640.456 369.713 637.137 374.052C625.861 388.795 613.842 402.893 602.21 417.346C600.532 419.432 598.965 421.269 597.07 423.166L596.69 420.96C598.526 420.283 639.27 367.699 645.481 360.513Z"/><path fill="white" d="M322.687 417.469L321.915 415.646L322.382 414.955C324.385 414.805 389.195 433.325 395.469 435.804C406.292 440.081 456.421 492.629 467.039 503.9C459.346 502.383 449.863 501.381 442.743 499.595C440.888 499.348 439.73 499.106 437.903 498.68C429.912 497.743 417.765 495.174 409.639 493.715C391.343 490.324 373.004 487.166 354.628 484.242C341.392 465.931 331.587 442.612 324.171 421.456L322.687 417.469Z"/><path fill="white" d="M324.171 421.456C324.531 421.42 324.891 421.385 325.25 421.349C345.961 435.481 378.896 458.317 398.297 471.49C411.471 480.455 424.734 489.288 438.085 497.987L437.903 498.68C429.912 497.743 417.765 495.174 409.639 493.715C391.343 490.324 373.004 487.166 354.628 484.242C341.392 465.931 331.587 442.612 324.171 421.456Z"/><path fill="#F6B769" d="M322.687 417.469C348.491 433.405 375.734 454.006 401.068 471.229C409.565 476.975 418.095 482.671 426.656 488.319C430.626 490.936 439.727 496.58 442.743 499.595C440.888 499.348 439.73 499.106 437.903 498.68L438.085 497.987C424.734 489.288 411.471 480.455 398.297 471.49C378.896 458.317 345.961 435.481 325.25 421.349C324.891 421.385 324.531 421.42 324.171 421.456L322.687 417.469Z"/><path fill="white" d="M558.103 504.139C564.179 496.554 580.215 481.398 587.822 473.779L604.696 456.843C610.085 451.373 620.369 440.518 627.341 439.138C637.959 437.035 697.613 415.003 704.163 416.217L703.934 417.022C703.614 417.898 703.143 419.367 702.709 420.125C691.904 446.868 686.07 459.61 670.377 484.419C643.949 489.73 614.225 494.552 587.522 499.041C586.058 499.317 584.894 499.582 583.393 499.639C578.198 501.2 564.098 503.179 558.103 504.139Z"/><path fill="white" d="M587.522 499.041C595.365 492.5 613.081 481.464 622.216 475.06L663.385 446.608C667.226 443.932 700.339 420.611 702.709 420.125C691.904 446.868 686.07 459.61 670.377 484.419C643.949 489.73 614.225 494.552 587.522 499.041Z"/><path fill="#F6B769" d="M583.393 499.639C589.987 494.158 600.491 487.274 607.654 482.441L642.485 458.81L680.562 432.236C686.432 428.13 697.918 419.248 703.934 417.022C703.614 417.898 703.143 419.367 702.709 420.125C700.339 420.611 667.226 443.932 663.385 446.608L622.216 475.06C613.081 481.464 595.365 492.5 587.522 499.041C586.058 499.317 584.894 499.582 583.393 499.639Z"/><path fill="white" d="M348.502 535.97C361.893 530.544 408.345 513.759 420.942 514.27C428.643 514.583 480.808 533.048 489.329 536.649C489.958 536.915 490.585 537.189 491.208 537.469L395.92 537.521L366.509 537.389C361.741 537.366 352.795 537.176 348.381 537.773L346.437 537.491L346.368 537.074L348.502 535.97Z"/><path fill="white" d="M602.203 514.626C611.194 513.842 648.245 526.569 658.132 530.171C662.57 531.788 672.897 536.372 677.493 538.432C655.343 537.719 632.46 537.974 610.25 537.962L533.996 538.261C551.17 530.808 568.899 525.335 586.568 519.246C591.465 517.559 597.142 515.406 602.203 514.626Z"/><path fill="white" d="M730.749 491.688L731.347 491.694L731.353 492.305C718.473 503.474 705.467 514.496 692.337 525.37C676.772 520.677 661.109 516.315 645.358 512.288C639.711 511.004 635.085 509.683 629.549 508.036C662.58 501.621 697.387 497.245 730.749 491.688Z"/><path fill="white" d="M291.693 491.055C319.81 496.59 349.809 499.409 378.149 504.369C382.957 505.21 387.668 505.668 392.434 506.85L379.035 511.048C363.41 515.864 347.751 520.571 332.06 525.17C326.41 521.114 320.133 515.384 314.802 510.79L291.693 491.055Z"/><path fill="white" d="M552.999 388.289C548.475 389.716 547.256 390.874 542.004 390.333C517.807 387.838 520.269 354.504 542.256 350.623C550.12 349.235 558.093 352.617 562.499 359.345C562.967 360.053 563.351 360.623 563.76 361.374L564.126 362.177C568.636 371.973 563.478 381.159 555.363 386.954C554.456 387.653 554.064 387.775 552.999 388.289Z"/><path fill="white" d="M555.363 386.954C557.71 380.382 559.923 373.69 561.872 366.988C562.599 364.485 562.472 363.721 563.76 361.374L564.126 362.177C568.636 371.973 563.478 381.159 555.363 386.954Z"/><path fill="#F6B769" d="M562.499 359.345C562.967 360.053 563.351 360.623 563.76 361.374C562.472 363.721 562.599 364.485 561.872 366.988C559.923 373.69 557.71 380.382 555.363 386.954C554.456 387.653 554.064 387.775 552.999 388.289C556.344 378.976 559.624 368.834 562.499 359.345Z"/><path fill="white" d="M462.275 358.65C465.837 353.956 470.622 351.31 476.506 350.576C482.139 349.821 487.832 351.438 492.228 355.041C505.364 365.841 501.664 386.905 483.998 390.373C480.444 391.07 474.45 390.027 471.401 387.942C470.08 387.428 469.441 387.258 468.366 386.317C459.925 380.174 457.562 370.489 461.087 360.943L461.135 360.844C461.597 359.867 461.731 359.582 462.275 358.65Z"/><path fill="white" d="M461.087 360.943C462.753 364.609 464.855 373.337 465.936 377.509L466.184 378.487C466.628 380.152 467.129 381.801 467.688 383.432C468.149 384.782 468.244 384.974 468.366 386.317C459.925 380.174 457.562 370.489 461.087 360.943Z"/><path fill="#C9A959" d="M461.087 360.943L461.135 360.844C461.597 359.867 461.731 359.582 462.275 358.65C465.635 368.067 468.103 378.387 471.401 387.942C470.08 387.428 469.441 387.258 468.366 386.317C468.244 384.974 468.149 384.782 467.688 383.432C467.129 381.801 466.628 380.152 466.184 378.487L465.936 377.509C464.855 373.337 462.753 364.609 461.087 360.943Z"/><path fill="white" d="M668.198 390.341C672.461 385.31 677.413 380.388 681.54 375.264C682.058 374.621 682.1 374.267 682.743 373.663C683.58 373.526 685.537 374.32 686.353 374.622L688.371 375.533C695.574 378 703.739 380.922 711.054 382.988C709.481 387.988 707.405 393.453 705.959 398.286C689.151 402.891 666.704 409.272 650.171 414.871C649.843 413.4 649.899 413.299 650.288 411.896L648.99 411.535C651.126 408.732 665.994 391.806 668.198 390.341Z"/><path fill="#C9A959" d="M668.198 390.341C672.461 385.31 677.413 380.388 681.54 375.264C682.058 374.621 682.1 374.267 682.743 373.663C683.58 373.526 685.537 374.32 686.353 374.622L688.371 375.533C683.155 379.564 679.646 383.487 675.021 388.024C666.82 396.067 658.297 403.644 650.288 411.896L648.99 411.535C651.126 408.732 665.994 391.806 668.198 390.341Z"/><path fill="white" d="M668.198 390.341C672.461 385.31 677.413 380.388 681.54 375.264C682.058 374.621 682.1 374.267 682.743 373.663C683.58 373.526 685.537 374.32 686.353 374.622C682.499 377.62 670.511 390.051 668.198 390.341Z"/><path fill="white" d="M338.87 374.462L339.673 374.324C340.351 374.191 341.421 373.932 341.986 374.522C346.995 379.751 352.262 384.735 356.933 390.286C359.572 392.387 373.154 407.521 375.19 410.394L373.092 410.065L373.626 410.71C374.706 411.994 375.123 411.498 374.124 413.336C355.92 408.487 337.781 403.396 319.712 398.062C318.225 393.239 316.438 388.108 314.848 383.29C320.973 380.501 330.421 377.605 337.133 375.148C338.166 374.894 338.133 374.994 338.87 374.462Z"/><path fill="#F6B769" d="M338.87 374.462L339.673 374.324C340.351 374.191 341.421 373.932 341.986 374.522C346.995 379.751 352.262 384.735 356.933 390.286C359.572 392.387 373.154 407.521 375.19 410.394L373.092 410.065C366.535 401.383 345.86 381.821 337.133 375.148C338.166 374.894 338.133 374.994 338.87 374.462Z"/><path fill="white" d="M338.87 374.462L339.673 374.324C340.351 374.191 341.421 373.932 341.986 374.522C346.995 379.751 352.262 384.735 356.933 390.286C355.125 389.832 341.028 376.713 338.87 374.462Z"/><path fill="white" d="M702.041 461.306C709.216 462.75 716.988 465.282 724.201 467.162C733.503 469.586 743.446 471.716 752.575 474.532C752.436 474.614 752.297 474.696 752.158 474.778L751.453 475.17C745.002 478.792 732.951 480.864 725.44 482.37C710.483 485.338 696.399 487.585 681.596 490.366C689.09 480.41 695.121 471.551 702.041 461.306Z"/><path fill="white" d="M320.019 462.108C321.289 461.864 322.008 462.024 322.8 463.074C325.23 466.292 327.447 469.69 329.784 472.985C334.113 478.972 338.558 484.873 343.119 490.685C332.27 487.892 314.142 484.926 302.657 482.616C298.193 481.716 273.592 477.39 272.392 474.457C273.586 473.585 315.758 463.166 320.019 462.108Z"/><path fill="#FEF9E9" d="M648.99 411.535L650.288 411.896C649.899 413.299 649.843 413.4 650.171 414.871C648.149 415.291 646.19 416.043 644.204 416.605C645.818 414.987 647.619 413.337 648.99 411.535Z"/><path fill="#FEF9E9" d="M373.092 410.065L375.19 410.394C376.665 412.121 378.59 413.793 380.221 415.458C378.139 414.737 376.16 414.177 374.124 413.336C375.123 411.498 374.706 411.994 373.626 410.71L373.092 410.065Z"/><path fill="white" d="M355.536 812.524C376.171 801.965 401.462 809.841 412.453 830.249C423.445 850.657 416.103 876.108 395.932 887.527C375.76 898.947 350.16 892.144 338.318 872.217C326.476 852.29 332.738 826.553 352.41 814.293C353.427 813.66 354.47 813.069 355.536 812.524Z"/><path fill="#593522" d="M355.536 812.524C376.171 801.965 401.462 809.841 412.453 830.249C423.445 850.657 416.103 876.108 395.932 887.527C375.76 898.947 350.16 892.144 338.318 872.217C326.476 852.29 332.738 826.553 352.41 814.293L353.12 815.144C338.248 825.796 337.929 843.969 343.05 860.191C349.249 879.833 371.062 896.379 391.9 887.91C423.444 875.089 410.096 824.205 383.07 813.584C373.136 809.617 365.212 809.862 356.011 813.544L355.536 812.524Z"/><path fill="#5C3D2E" d="M355.536 812.524L356.011 813.544C355.044 814.071 354.08 814.604 353.12 815.144L352.41 814.293C353.427 813.66 354.47 813.069 355.536 812.524Z"/><path fill="#593522" d="M178.693 808.199C202.088 805.67 223.095 822.605 225.589 846.003C228.083 869.402 211.117 890.384 187.715 892.843C164.362 895.297 143.433 878.374 140.945 855.025C138.456 831.676 155.347 810.722 178.693 808.199Z"/><path fill="white" d="M160.55 815.882C166.325 812.635 168.981 811.674 175.654 810.891C211.888 806.636 235.744 869.539 202.955 886.633C165.605 906.105 128.682 844.125 159.998 816.315C160.235 815.995 160.195 816.012 160.55 815.882Z"/><path fill="white" d="M590.159 808.945C593.446 808.915 595.828 808.848 599.087 809.797C612.59 813.731 615.972 832.044 605.609 841.159C603.027 843.431 601.405 844.391 598.195 845.784C605.327 847.601 611.497 850.044 615.191 856.785C621.604 868.489 617.447 883.135 605.524 889.239C595.308 894.468 582.625 892.855 571.582 892.596L563.397 892.481C564.737 882.655 564.608 870.08 564.51 860.078C564.353 844.046 564.933 827.86 563.537 811.92C563.376 810.09 563.277 809.965 564.173 808.992L566.667 809.008C574.497 808.832 582.329 808.811 590.159 808.945Z"/><path fill="white" d="M566.667 809.008C574.497 808.832 582.329 808.811 590.159 808.945L589.678 809.143C588.336 809.683 587.794 809.713 586.576 810.462C592.491 812.208 596.821 812.226 600.657 817.871C605.237 824.61 604.009 838.112 596.693 842.332C590.518 845.894 578.415 845.8 571.342 845.384C571.718 838.617 571.816 817.387 571.391 810.291C569.709 810.233 568.271 809.575 566.667 809.008Z"/><path fill="#5C3D2E" d="M566.667 809.008C574.497 808.832 582.329 808.811 590.159 808.945L589.678 809.143C588.336 809.683 587.794 809.713 586.576 810.462C581.603 810.494 576.763 809.396 571.391 810.291C569.709 810.233 568.271 809.575 566.667 809.008Z"/><defs><linearGradient id="gradient_1" gradientUnits="userSpaceOnUse" x1="614.07233" y1="846.96832" x2="565.78809" y2="854.27997"><stop offset="0" stop-color="#55311E"/><stop offset="1" stop-color="#7B5344"/></linearGradient></defs><path fill="url(#gradient_1)" d="M590.159 808.945C593.446 808.915 595.828 808.848 599.087 809.797C612.59 813.731 615.972 832.044 605.609 841.159C603.027 843.431 601.405 844.391 598.195 845.784C605.327 847.601 611.497 850.044 615.191 856.785C621.604 868.489 617.447 883.135 605.524 889.239C595.308 894.468 582.625 892.855 571.582 892.596L571.65 891.46C580.542 890.856 592.164 891.476 599.909 886.852C604.591 884.024 607.872 879.36 608.95 873.997C611.437 862.217 605.749 849.919 593.247 847.571C586.065 846.223 578.638 846.526 571.341 846.56L571.342 845.384C578.415 845.8 590.518 845.894 596.693 842.332C604.009 838.112 605.237 824.61 600.657 817.871C596.821 812.226 592.491 812.208 586.576 810.462C587.794 809.713 588.336 809.683 589.678 809.143L590.159 808.945Z"/><path fill="#593522" d="M563.397 892.481C564.737 882.655 564.608 870.08 564.51 860.078C564.353 844.046 564.933 827.86 563.537 811.92C563.376 810.09 563.277 809.965 564.173 808.992L566.667 809.008C568.271 809.575 569.709 810.233 571.391 810.291C571.816 817.387 571.718 838.617 571.342 845.384L571.341 846.56C571.385 853.701 570.357 886.482 571.65 891.46L571.582 892.596L563.397 892.481Z"/><path fill="#F6B769" d="M71.1909 775.668L647.642 775.725L856.1 775.74L923.053 775.662C932.004 775.675 941.087 775.672 950.055 775.539C952.223 775.507 952.368 775.881 953.409 777.071L952.764 778.819C951.685 779.643 952.004 779.67 950.547 779.677C934.215 779.755 917.654 779.698 901.345 779.656L804.379 779.518L319.785 779.564L154.066 779.498L102.598 779.493C92.8143 779.505 81.7014 779.761 72.0253 779.368C71.1533 778.39 71.3627 777.299 71.1909 775.668Z"/><path fill="white" d="M430.399 808.951L438.172 809L438.282 809.889C442.223 810.008 447.356 810.301 451.11 810.343C453.479 809.029 460.643 809.824 464.545 809.446C470.743 809.543 476.679 811.046 480.952 815.725C487.756 823.177 486.799 834.727 479.139 841.167C473.093 846.249 466.916 847.104 459.485 847.525C473.337 855.312 477.236 873.906 485.573 886.588C488.831 891.544 492.187 888.596 492.836 890.713C487.044 895.438 482.484 893.914 478.269 888.129C469.875 876.606 466.85 860.05 455.881 850.694C454.828 849.836 451.409 849.071 449.992 848.728C444.592 849.096 443.73 848.998 439.572 852.514C437.288 857.463 438.684 886.312 439.618 892.694L430.517 892.696C431.824 878.797 431.514 865.783 431.543 851.852C431.574 836.958 431.946 823.771 430.399 808.951Z"/><path fill="#593522" d="M464.545 809.446C470.743 809.543 476.679 811.046 480.952 815.725C487.756 823.177 486.799 834.727 479.139 841.167C473.093 846.249 466.916 847.104 459.485 847.525C473.337 855.312 477.236 873.906 485.573 886.588C488.831 891.544 492.187 888.596 492.836 890.713C487.044 895.438 482.484 893.914 478.269 888.129C469.875 876.606 466.85 860.05 455.881 850.694C454.828 849.836 451.409 849.071 449.992 848.728C448.664 848.431 447.844 848.376 446.627 847.777C456.742 845.688 473.425 846.154 475.975 833.25C479.502 815.398 465.907 811.311 451.11 810.343C453.479 809.029 460.643 809.824 464.545 809.446Z"/><path fill="#593522" d="M430.399 808.951L438.172 809L438.282 809.889C437.718 814.019 438.04 847.433 438.689 851.848L439.572 852.514C437.288 857.463 438.684 886.312 439.618 892.694L430.517 892.696C431.824 878.797 431.514 865.783 431.543 851.852C431.574 836.958 431.946 823.771 430.399 808.951Z"/><path fill="#7D6659" d="M446.627 847.777C447.844 848.376 448.664 848.431 449.992 848.728C444.592 849.096 443.73 848.998 439.572 852.514L438.689 851.848C441.749 849.563 442.582 848.653 446.627 847.777Z"/><path fill="white" d="M799.719 816.803C801.203 812.291 802.39 808.408 804.449 804.099C809.397 818.754 815.011 833.549 820.239 848.147C825.499 862.836 830.916 878.587 837.456 892.681L828.109 892.646C826.286 885.671 824.621 880.681 821.631 874.112C815.044 864.304 808.86 860.936 796.498 862.017C790.788 862.517 786.022 866.735 782.478 870.952L781.912 870.467L781.286 870.46C780.814 870.144 780.556 870.026 780.189 869.603C786.582 852.13 793.542 834.257 799.719 816.803Z"/><path fill="#593522" d="M799.719 816.803C801.203 812.291 802.39 808.408 804.449 804.099C809.397 818.754 815.011 833.549 820.239 848.147C825.499 862.836 830.916 878.587 837.456 892.681L828.109 892.646C826.286 885.671 824.621 880.681 821.631 874.112C822.314 872.63 822.586 872.055 821.303 870.832C814.402 853.128 808.681 834.073 801.765 816.506L799.719 816.803Z"/><path fill="#5C3D2E" d="M799.719 816.803L801.765 816.506C794.938 832.213 787.571 853.84 781.286 870.46C780.814 870.144 780.556 870.026 780.189 869.603C786.582 852.13 793.542 834.257 799.719 816.803Z"/><path fill="#5C3D2E" d="M781.912 870.467C791.881 856.902 808.79 854.661 819.842 869.688C820.486 870.563 820.368 870.46 821.303 870.832C822.586 872.055 822.314 872.63 821.631 874.112C815.044 864.304 808.86 860.936 796.498 862.017C790.788 862.517 786.022 866.735 782.478 870.952L781.912 870.467Z"/><path fill="#593522" d="M765.786 871.775C755.993 885.849 742.249 895.37 724.392 893.26C714.056 892.094 704.628 886.805 698.244 878.593C683.188 859.381 687.992 831.347 707.13 816.588L707.964 817.463C681.094 841.384 703.886 892.842 740.356 886.639C752.088 884.643 757.671 879.838 765.786 871.775Z"/><path fill="#593522" d="M238.911 808.91L246.134 808.755C248.791 814.646 278.338 881.411 279.889 882.799L281.226 883.676C279.715 887.339 278.299 890.804 276.588 894.377C265.277 869.616 254.276 843.778 243.204 818.761L241.364 818.324C241.749 838.11 238.402 875.904 245.12 892.456L238.284 892.493C240.593 870.882 239.591 836.347 239.48 813.782C239.272 812.211 239 810.472 238.911 808.91Z"/><path fill="#FEF9E9" d="M241.052 814.819C242.128 816.426 242.381 816.978 243.204 818.761L241.364 818.324C241.132 817.631 241.108 817.286 241.094 816.557L241.052 814.819Z"/><path fill="#593522" d="M847.269 809.006L855.136 809.04L855.5 809.931C855.366 821.8 855.361 833.669 855.486 845.538L855.203 846.471C856.149 861.58 854.032 877.261 856.559 892.631L847.517 892.629C848.673 882.151 848.223 866.795 848.194 855.984C848.154 840.678 848.542 824.188 847.269 809.006Z"/><path fill="#593522" d="M71.3965 808.981L79.6281 808.956C78.9783 823.223 79.1092 837.42 79.0667 851.697C79.0565 855.108 79.0025 858.496 79.2211 861.902C80.1665 861.73 80.5445 860.716 81.3126 859.655C81.6222 860.318 81.8692 860.928 82.0649 861.636L82.936 861.433L83.6704 861.393C77.0151 870.59 78.7718 881.724 79.8541 892.582L71.5298 892.544C72.6341 880.82 72.2043 864.386 72.1892 852.327C72.1729 839.343 72.8456 821.517 71.3965 808.981Z"/><path fill="#593522" d="M635.704 809.076L643.804 808.992C642.347 834.128 643.338 860.677 643.77 885.89C643.806 888.014 644.423 890.883 643.87 892.844L635.45 892.695C636.761 879.598 636.366 865.299 636.26 852.096C636.146 837.841 636.246 823.286 635.704 809.076Z"/><path fill="#593522" d="M503.854 809.142L511.631 809.033L511.875 809.923C511.878 816.663 511.48 840.007 512.249 845.661C512.642 845.967 512.603 846.03 512.554 846.55C511.673 848.277 511.517 887.128 511.806 891.281L511.472 892.539L503.873 892.496C505.527 879.292 505.021 862.723 505.035 849.157C505.048 836.667 505.487 821.203 503.854 809.142Z"/><path fill="#593522" d="M905.233 808.914L912.442 808.984C912.635 809.999 912.577 810.087 913.15 810.865C913.578 816.386 913.863 841.121 913.11 845.931L913.423 846.643C913.409 852.393 912.823 888.449 913.836 891.35L914.18 892.552L905.777 892.505C907.284 881.216 906.662 865.496 906.534 853.604C906.382 839.45 907.273 822.559 905.233 808.914Z"/><path fill="#593522" d="M311.707 808.618L318.694 808.753C317.22 822.367 317.678 832.818 317.596 846.456C317.498 862.605 317.501 876.342 318.641 892.425L309.996 892.441C311.636 878.132 311.122 861.637 311.094 847.035C311.077 838.104 311.426 824.957 310.797 816.441L309.089 815.683L311.707 808.618Z"/><path fill="#593522" d="M91.7292 853.76C103.841 848.711 107.45 858.202 114.278 866.218C120.15 873.112 125.778 883.159 134.256 886.944C135.809 887.644 139.491 885.313 138.489 887.738C128.154 905.898 110.892 873.464 105.303 866.009C101.318 860.691 101.218 853.428 92.5186 854.485L91.7292 853.76Z"/><path fill="#593522" d="M723.445 809.127C737.015 806.443 749.657 808.536 760.263 817.892C758.639 820.604 757.253 822.454 755.265 824.904C745.014 815.796 741.413 812.212 727.371 810.706C726.944 810.402 724.671 809.809 723.445 809.127Z"/><defs><linearGradient id="gradient_2" gradientUnits="userSpaceOnUse" x1="108.46993" y1="837.46313" x2="101.2337" y2="832.18542"><stop offset="0" stop-color="#582C21"/><stop offset="1" stop-color="#734B2F"/></linearGradient></defs><path fill="url(#gradient_2)" d="M127.814 808.667C129.519 808.581 133.594 808.196 129.489 810.259C116.166 819.585 108.091 829.698 97.7482 842.029C93.8371 846.692 88.989 852.117 85.3542 856.872L86.1654 857.66L86.1262 858.05L86.7226 858.636C85.5623 859.782 84.9965 860.466 83.6704 861.393L82.936 861.433L82.0649 861.636C81.8692 860.928 81.6222 860.318 81.3126 859.655C90.166 847.728 116.86 820.363 120.461 808.692L127.814 808.667Z"/><path fill="#F7E5C4" d="M85.3542 856.872L86.1654 857.66L86.1262 858.05L86.7226 858.636C85.5623 859.782 84.9965 860.466 83.6704 861.393L82.936 861.433L82.9542 860.794C83.7395 858.907 84.0237 858.464 85.3542 856.872Z"/><path fill="#5C3D2E" d="M86.1262 858.05L86.7226 858.636C85.5623 859.782 84.9965 860.466 83.6704 861.393L82.936 861.433L82.9542 860.794C84.3106 859.807 84.8921 859.224 86.1262 858.05Z"/><path fill="#593522" d="M127.814 808.667C129.519 808.581 133.594 808.196 129.489 810.259C128.783 809.292 128.85 809.306 127.814 808.667Z"/><path fill="#5C3D2E" d="M309.089 815.683L310.797 816.441C307.43 822.355 304.746 829.733 301.84 835.953C294.672 851.292 288.471 868.539 281.226 883.676L279.889 882.799C281.327 880.066 282.432 877.146 283.654 874.313C292.093 854.757 300.154 835.018 309.089 815.683Z"/><defs><linearGradient id="gradient_3" gradientUnits="userSpaceOnUse" x1="944.67938" y1="897.59094" x2="921.78992" y2="880.84943"><stop offset="0" stop-color="#532D1B"/><stop offset="1" stop-color="#805D4C"/></linearGradient></defs><path fill="url(#gradient_3)" d="M913.836 891.35C929.708 891.408 938.615 891.011 952.915 883.608L950.496 892.632C938.485 892.558 926.107 892.798 914.18 892.552L913.836 891.35Z"/><path fill="#593522" d="M527.563 890.991C539.294 888.645 539.937 888.915 550.705 883.465C549.86 886.572 549.169 889.443 548.507 892.59C544.559 892.645 535.809 892.952 532.188 892.579C530.35 891.78 529.017 891.941 527.563 890.991Z"/><path fill="#593522" d="M932.269 809.067C936.882 808.743 944.671 809.102 949.748 809.028C950.493 812.216 951.347 815.377 952.103 818.562C940.179 810.799 937.893 812.234 925.235 810.061C928.236 809.69 929.371 809.96 932.269 809.067Z"/><path fill="#593522" d="M528.326 809.035C535.019 808.904 541.713 808.868 548.406 808.927L549.086 811.994C549.599 814.315 550.002 816.336 550.418 818.686C543.222 813.419 537.816 811.337 528.832 810.48L528.326 809.035Z"/><path fill="#593522" d="M870.747 808.995L891.28 808.78C891.754 811.925 892.356 815.022 892.793 818.189C884.769 812.628 880.376 811.567 870.799 810.437L870.747 808.995Z"/><path fill="#5C3D2E" d="M855.486 845.538C866.684 845.496 873.385 847.028 883.323 841.014C883.366 844.275 883.319 847.26 883.251 850.511L882.536 850.126C872.855 844.719 865.057 847.54 855.203 846.471L855.486 845.538Z"/><path fill="#5C3D2E" d="M913.11 845.931C923.317 843.871 931.319 848.769 940.581 841.147C940.537 844.083 940.526 847.019 940.549 849.955C930.912 845.92 923.711 846.492 913.423 846.643L913.11 845.931Z"/><path fill="#593522" d="M931.088 792.484C934.132 792.47 937.176 792.503 940.219 792.584C937.127 795.329 933.98 798.011 930.78 800.629C928.849 802.317 926.992 803.726 925.005 805.327C927.003 801.151 929.258 796.652 931.088 792.484Z"/><path fill="#5C3D2E" d="M780.189 869.603C780.556 870.026 780.814 870.144 781.286 870.46L781.912 870.467L782.478 870.952C781.47 873.209 780.22 875.355 779.205 877.671C777.116 882.438 775.592 887.322 773.827 892.19C773.712 892.509 772.149 892.777 771.84 892.797C770.304 892.037 771.859 889.932 772.356 888.702L779.714 870.665C779.792 870.495 779.869 870.326 779.946 870.156L780.189 869.603Z"/><defs><linearGradient id="gradient_4" gradientUnits="userSpaceOnUse" x1="538.97192" y1="846.54614" x2="523.28326" y2="842.75702"><stop offset="0" stop-color="#5B321D"/><stop offset="1" stop-color="#6E4E3F"/></linearGradient></defs><path fill="url(#gradient_4)" d="M526.3 845.553C531.916 845.191 535.326 844.542 539.633 840.925C539.546 844.17 539.498 847.417 539.487 850.664C535.067 848.075 533.877 847.614 528.778 846.926C526.735 846.489 524.241 846.594 522.789 846.258L522.809 846.282C524.036 845.982 524.925 845.951 526.3 845.553Z"/><path fill="#5C3D2E" d="M511.806 891.281C516.803 891.25 522.874 890.885 527.563 890.991C529.017 891.941 530.35 891.78 532.188 892.579C526.256 892.95 517.591 892.653 511.472 892.539L511.806 891.281Z"/><path fill="#5C3D2E" d="M707.13 816.588C712.966 812.356 716.844 811.271 723.445 809.127C724.671 809.809 726.944 810.402 727.371 810.706L726.407 810.754C718.333 811.086 714.416 812.716 707.964 817.463L707.13 816.588Z"/><path fill="#7D6659" d="M438.172 809C443.596 808.952 459.955 808.772 464.545 809.446C460.643 809.824 453.479 809.029 451.11 810.343C447.356 810.301 442.223 810.008 438.282 809.889L438.172 809Z"/><path fill="#5C3D2E" d="M912.442 808.984C919.025 809.053 925.7 808.852 932.269 809.067C929.371 809.96 928.236 809.69 925.235 810.061C922.489 810.184 914.491 809.086 913.15 810.865C912.577 810.087 912.635 809.999 912.442 808.984Z"/><path fill="#5C3D2E" d="M855.136 809.04C860.339 808.978 865.543 808.963 870.747 808.995L870.799 810.437C866.672 810.469 859.993 810.027 855.5 809.931L855.136 809.04Z"/><path fill="#7D6659" d="M512.249 845.661C516.46 845.909 521.917 845.532 526.3 845.553C524.925 845.951 524.036 845.982 522.809 846.282L522.789 846.258C524.241 846.594 526.735 846.489 528.778 846.926C525.136 846.993 515.734 847.146 512.554 846.55C512.603 846.03 512.642 845.967 512.249 845.661Z"/><path fill="#5C3D2E" d="M516.394 809.024C520.332 809.043 524.411 808.887 528.326 809.035L528.832 810.48C525.817 810.259 523.702 810.04 520.617 809.971C519.019 809.517 518.055 809.328 516.394 809.024Z"/><path fill="#7D6659" d="M86.1654 857.66C88.2034 856.149 89.4986 855.066 91.7292 853.76L92.5186 854.485C90.1341 856.015 88.9253 857.038 86.7226 858.636L86.1262 858.05L86.1654 857.66Z"/><path fill="#AB9889" d="M511.631 809.033C513.43 808.951 514.604 808.874 516.394 809.024C518.055 809.328 519.019 809.517 520.617 809.971C517.74 810.028 514.782 809.923 511.875 809.923L511.631 809.033Z"/></svg>