<?xml version="1.0" encoding="utf-8" ?><svg xmlns="http://www.w3.org/2000/svg" xmlns:xlink="http://www.w3.org/1999/xlink" width="1024" height="1024" viewBox="0 0 1024 1024"><path fill="white" d="M0 0L1024 0L1024 1024L0 1024L0 0Z"/><path fill="#5C3D2E" d="M355.882 167.933C372.699 175.292 395.709 187.951 412.555 196.553C443.759 187.441 478.542 180.971 510.1 172.007C514.388 170.789 536.601 177.366 543.061 179.049L611.706 197.063C615.891 195.238 620.4 192.398 624.545 190.431C638.458 183.828 654.413 174.069 668.427 168.269C664.923 183.25 660.676 197.784 657.244 213.027C651.175 240.381 646.406 268.007 642.952 295.812C641.36 308.29 637.799 356.284 634.14 363.837C630.701 370.936 623.922 377.634 618.768 383.605C605.73 398.711 592.005 413.195 578.91 428.257L579.907 428.737C600.122 411.436 617.505 394.928 635.042 374.918C641.021 342.279 655.025 310.859 668.162 280.636C677.822 257.796 687.799 235.091 698.091 212.528L710.611 183.622C712.345 179.611 714.202 175.273 716.066 171.293C716.675 169.993 717.34 169.996 718.484 169.648C720.173 170.275 719.513 169.755 720.509 171.292C720.692 173.225 717.29 180.029 716.361 182.218C711.788 192.989 707.142 203.729 702.423 214.437C686.542 250.784 670.47 287.321 655.466 324.036C651.628 333.426 645.573 351.368 643.133 361.046C648.008 352.036 652.847 341.671 657.785 332.342C668.534 311.98 679.911 291.957 691.901 272.301C712.758 238.002 735.211 204.251 757.373 170.794C757.966 169.898 760.568 170.441 761.422 171.304C761.24 172.877 760.748 174.018 759.884 175.372C738.845 208.342 716.966 241.074 696.678 274.496C687.311 290.105 678.162 305.845 669.232 321.709C663.714 331.563 658.27 341.956 652.491 351.606L653.675 352.109C690.432 304.894 727.812 258.168 765.808 211.945C776.985 198.54 787.682 184.708 798.987 171.406C800.308 169.852 802.378 170.354 803.98 171C804.29 172.18 804.196 172.965 803.362 173.984C797.339 181.352 791.218 189.047 785.171 196.359C772.256 211.846 759.484 227.451 746.856 243.172L686.777 319.714C675.667 334.01 664.478 349.107 652.822 362.879L653.693 363.621L794.725 223.579L831.205 187.599C835.739 183.134 840.19 178.683 844.627 174.124C846.444 172.257 848.814 170.56 850.978 172.654C851.279 173.641 851.756 174.763 850.845 175.791C847.005 180.125 841.789 185.169 837.751 189.216L798.308 228.468L715.123 311.708C694.38 332.651 673.22 354.651 652.114 375.078L654.612 374.571C679.618 354.123 704.612 334.627 729.521 313.787C757.428 290.061 785.545 266.584 813.87 243.359C823.747 235.156 833.596 226.871 843.34 218.507C844.74 217.305 845.968 216.59 847.769 216.256C852.207 218.58 845.712 223.388 843.883 224.917C822.043 243.161 800.217 261.418 778.267 279.531L720.012 328.391C698.273 346.46 676.006 363.968 654.471 382.316C644.294 390.985 634.356 399.902 624.247 408.635L624.561 410.034C689.592 365.964 753.996 320.976 817.754 275.085C821.648 272.299 847.497 253.192 849.611 252.782C850.032 254.864 850.016 255.06 849.868 257.204C847.678 259.85 837.738 266.708 834.469 269.066L807.004 288.888C745.118 333.189 682.926 377.062 620.434 420.505L621.669 421.153C637.895 411.254 654.622 401.98 671.102 392.462C703.197 374.088 735.162 355.488 766.995 336.664L824.812 302.091C830.703 298.622 843.964 290.269 849.24 288.078C849.243 289.677 849.321 291.917 849.2 293.455C804.546 320.595 759.645 347.326 714.502 373.645C679.753 393.886 643.777 414.388 609.722 435.737L610.178 436.749C625.565 429.804 640.291 422.169 655.448 414.919L808.501 340.913C813.49 338.554 846.002 321.948 848.657 322.032C849.174 323.8 848.94 324.815 848.776 326.637C846.885 328.519 825.119 338.633 821.545 340.354L772.23 364.232L604.078 446.957L605.274 447.724L771.937 382.644L822.403 362.768C829.904 359.81 837.571 356.817 845.057 353.776C846.495 353.191 847.742 353.155 849.237 353.567C850.334 354.698 849.991 354.016 850.074 355.783C848.135 359.664 831.096 365.339 826.225 367.249L794.272 379.88L675.164 426.554C657.822 433.246 640.56 440.142 623.38 447.242C613.449 451.267 599.414 456.625 590.17 461.386L591.248 462.236C610.183 455.342 632.276 449.203 651.712 443.22L764.57 408.994C784.509 402.981 804.488 397.097 824.503 391.343C829.47 389.912 844.57 385.165 848.79 384.621L849.272 385.036C849.354 387.29 849.737 387.42 848.791 389.028C845.867 390.708 837.633 393.018 833.89 394.16L802.938 403.299L716.469 429.218L632.558 455.364C617.75 460.038 596.057 467.318 581.163 470.855C579.809 472.448 578.171 474.276 576.942 475.93C592.56 470.893 610.624 465.033 626.566 461.379C645.953 456.936 666.104 453.291 685.648 449.18C719.128 441.964 752.672 435.05 786.277 428.439L826.924 420.462C832.086 419.451 843.797 416.913 848.43 416.747L849.194 417.24C849.467 418.891 849.562 418.959 849.254 420.662C847.864 421.791 846.775 422.038 844.985 422.419L588.395 475.181C589.088 475.575 589.71 475.913 590.416 476.277C604.394 474.807 618.194 472.914 632.146 471.303C682.947 465.141 733.802 459.432 784.705 454.177L827.273 449.799C831.974 449.309 844.496 447.717 848.766 447.83C849.673 448.969 849.495 451.033 848.826 452.273C844.202 453.47 828.311 454.93 822.865 455.538L764.969 461.688C719.666 466.406 674.525 472.55 629.127 477.126L629.5 477.818C633.03 478.209 638.811 477.956 642.586 477.949L669.946 477.919C673.741 477.92 680.492 477.747 684.114 478.075L848.587 477.827C848.662 487.34 848.565 497.491 848.917 506.952C770.801 506.787 692.684 507.322 614.577 508.558C611.303 509.042 607.262 509.08 603.938 509L604.009 509.989C658.958 516.467 713.957 522.52 768.999 528.146C791.378 530.279 813.739 532.588 836.081 535.072C839.628 535.501 850.817 534.32 849.753 540.044C849.629 540.711 849.239 540.727 848.633 541.119C844.197 541.613 833.61 539.903 828.539 539.378L789.957 535.539L685.66 525.038C666.705 522.934 647.735 520.966 628.752 519.133C620.96 518.346 610.511 516.851 602.911 516.416L602.111 517.349L694.509 535.85C739.105 544.26 783.581 553.289 827.926 562.933C832.448 563.88 846.119 565.455 849.071 567.56C849.666 569.316 849.535 569.751 849.413 571.562C847.102 572.772 820.227 566.363 815.518 565.41C788.618 560.19 761.762 554.742 734.954 549.066C708.652 543.921 682.318 538.943 655.953 534.131C635.449 530.209 612.096 525.284 591.567 522.226L591.472 523.423C598.66 525.716 605.978 527.218 613.307 529.007C624.688 531.748 636.022 534.679 647.305 537.799C667.026 543.44 686.687 549.291 706.283 555.352C734.06 563.455 761.756 571.833 789.368 580.484L830.15 592.898C835.213 594.455 840.272 595.885 845.341 597.399C848.664 598.391 849.29 599.931 849.079 603.059L848.498 603.656C844.031 603.301 838.442 600.605 834 599.261L795.206 587.616L684.668 554.4C660.779 547.119 635.478 538.886 611.5 532.234L610.896 533.164C665.825 556.682 721.721 578.208 777.125 600.726C793.974 607.433 810.74 614.349 827.418 621.473C833.032 623.83 846.423 627.674 849.004 632.557L849.01 633.908C846.493 635.918 835.833 630.163 832.454 628.783L785.705 609.83C745.404 593.583 705.004 577.582 664.507 561.829C640.893 552.403 617.401 542.235 593.683 533.131L593.342 534.114C654.224 563.717 714.715 594.119 774.799 625.311L824.836 651.323C831.777 654.941 842.501 660.073 848.854 663.905L848.391 669.697C807.926 647.625 767 626.409 725.641 606.063C680.933 583.39 635.945 561.275 590.686 539.722L590.25 540.699C615.728 556.992 641.62 572.629 667.901 587.593C675.671 592.054 683.676 596.231 691.379 600.693C726.597 621.217 761.555 642.183 796.245 663.586L832.377 685.756C837.649 688.973 843.01 692.103 848.187 695.46C849.874 696.553 850.758 698.897 849.329 700.572C846.076 700.824 837.312 694.513 833.941 692.404C827.693 688.54 821.42 684.718 815.123 680.936L635.646 574.258L634.991 575.489C645.613 583.7 655.324 592.709 665.833 600.936C670.445 604.265 675.494 607.054 680.141 610.308C685.137 613.806 689.846 617.836 694.933 621.223C731.444 645.53 766.937 671.346 802.605 696.874L828.776 715.848C834.622 720.02 845.08 726.476 849.865 732.237C850.665 733.199 850.759 734.822 850.383 736.054C847.544 736.159 835.838 726.822 832.717 724.595L789.803 693.578L664.921 604.522C654.494 596.948 644.55 588.681 634.222 581.008C619.957 570.408 605.069 559.566 590.174 549.908L589.492 550.987L747.653 681.37L809.508 733.043C821.81 743.349 834.388 753.476 846.284 764.271C847.747 765.599 850.632 768.243 850.655 770.2C850.667 771.136 850.461 771.026 849.758 771.771C846.543 771.758 838.419 763.536 835.654 761.217L811.01 740.561C794.146 726.221 777.132 712.058 759.971 698.075L593.191 561.273L592.323 562.232C601.115 570.726 610.865 579.428 619.851 587.85L673.031 637.94L793.157 751.397C810.399 767.644 827.706 783.827 844.814 800.214C847.627 802.909 851.282 805.165 850.142 809.346L849.207 809.758C847.338 809.209 846.194 808.238 844.761 806.909L578.187 556.228L577.917 557.647L744.755 736.564L814.49 810.393C826.011 822.643 837.525 835.022 848.927 847.395C850.074 848.64 850.443 849.406 850.613 851.049C849.91 852.026 850.276 851.97 849.362 852.122C847.71 852.397 845.277 850.548 844.154 849.356C834.785 839.424 825.378 829.416 815.982 819.511C793.173 795.548 770.496 771.459 747.951 747.247L585.237 574.23L584.779 575.173L733.127 759.729C750.6 780.873 767.747 802.286 784.56 823.959C789.018 829.643 802.056 845.519 804.994 851.294C793.951 846.942 781.488 840.943 770.512 836.005L717.812 812.568L570.09 748.227L569.489 749.001C615.407 775.001 661.091 801.412 706.536 828.23L733.993 844.443C736.255 845.77 743.322 849.608 744.911 850.954C742.435 857.115 719.225 841.334 715.047 838.918L672.594 814.518L593.97 769.821C584.007 764.155 573.071 758.258 563.317 752.444L562.49 753.502C591.868 775.195 621.084 797.106 650.136 819.233C659.442 826.263 668.71 833.344 677.939 840.475C681.823 843.462 689.496 849.062 692.581 852.188L692.377 853.01C690.612 853.851 687.615 853.673 686.018 852.479C680.417 848.293 674.829 844.086 669.237 839.887L636.209 815.214C608.215 794.284 579.963 773.701 551.459 753.469L551.103 755.113C563.738 766.544 577.396 780.224 589.635 792.254C605.158 807.42 620.521 822.75 635.721 838.24C637.743 840.334 647.751 850.269 648.727 852.127L648.442 853.012C646.669 853.586 646.204 853.419 644.384 853.215C641.45 851.154 634.406 843.627 631.368 840.632L603.831 813.606C590.521 800.603 577.118 787.696 563.622 774.886C558.49 770.065 551.907 764.622 547.112 759.908L546.253 760.691C557.71 775.133 570.977 794.553 581.844 809.783L597.216 831.562C599.72 835.06 610.914 849.556 610.91 852.532C608.848 853.693 606.461 853.387 604.998 851.33C584.821 822.97 564.499 794.703 543.544 766.91C539.863 762.029 536.204 757.314 532.768 752.281L531.836 752.428C534.957 759.896 539.905 769.694 543.417 777.194L565.992 825.289L575.655 845.869C576.532 847.766 578.354 850.96 578.936 852.653C577.461 853.498 576.625 853.287 574.779 853.398C572.334 852.225 567.361 840.196 565.803 836.968L546.975 797.372C539.263 781.157 530.3 764.34 523.184 748.113L522.296 749.918C524.752 758.078 526.841 768.617 528.777 777.136C532.476 792.966 536.067 808.822 539.551 824.701C540.756 829.998 545.681 847.984 545.789 851.815C544.718 852.67 543.648 852.504 542.223 852.553C539.482 850.619 538.28 841.296 537.467 837.757L531.778 813.257C529.105 801.419 525.992 789.748 522.963 777.997C520.93 770.11 519.271 761.9 517.213 754.076C516.12 756.086 516.556 764.542 516.075 768.248L515.562 824.796C515.534 833.26 515.387 841.881 515.716 850.326C515.771 851.759 515.294 852.049 514.484 852.756C512.752 853.006 512.731 853.073 510.926 852.773C509.573 850.917 510.387 832.097 510.399 828.586L510.579 767.238C510.131 762.512 510.997 745.3 509.705 743.03C508.618 749.172 507.404 755.29 506.063 761.381C502.823 775.512 498.54 790.829 495.191 804.952C494.033 809.836 485.076 850.676 483.368 852.325C481.47 852.49 480.326 852.545 478.422 852.524L496.738 774.968L501.705 754.314C502.188 752.284 503.551 745.933 504.23 744.2L503.199 743.066C500.889 750.737 453.095 851.801 451.016 853.19C448.986 853.57 448.094 853.322 446.003 853.056C450.809 843.681 455.44 833.906 459.815 824.309C471.589 798.485 484.505 772.888 495.654 746.799C486.254 759.966 476.286 772.808 466.817 785.926C450.844 808.332 435.069 830.879 419.494 853.563L413.449 853.359C433.487 822.797 456.036 792.66 476.506 762.499L474.891 761.995C469.444 767.473 463.186 773.017 457.523 778.403C445.921 789.449 434.395 800.575 422.948 811.782C410.3 824.172 398.028 836.873 385.555 849.429C383.891 851.103 379.719 854.784 377.46 853.724L377.289 852.978C378.333 848.55 382.645 845.42 385.81 842.185L401.265 826.236C422.957 803.897 448.905 777.905 471.722 756.722L471.788 755.189C442.129 776.341 412.642 797.735 383.332 819.367L352.758 841.756C348.912 844.613 337.751 854.487 333.784 854.056C332.317 853.014 332.65 853.673 332.24 852.282C336.443 847.195 362.167 828.891 368.81 823.846C389.522 808.044 410.368 792.418 431.347 776.972C439.485 770.945 451.206 761.52 459.189 756.331L459.352 754.73C444.355 763.673 428.219 772.135 412.912 780.65L362.404 809.338L308.554 839.584C302.797 842.803 285.683 854.581 280.118 852.741L279.901 851.904C282.084 848.443 302.727 837.366 307.408 834.652C325.349 824.175 343.376 813.844 361.485 803.661L460.403 746.439C456.295 747.523 446.653 752.003 442.396 753.871L406.556 769.691L265.809 830.845C250.96 837.186 234.035 845.923 219.259 851.376C219.307 851.223 219.351 851.069 219.403 850.918C219.489 850.665 219.584 850.416 219.672 850.164C223.789 838.371 260.429 796.783 269.91 785.081L358.765 675.712L435.042 580.042L434.236 578.866L228.241 797.458L190.167 837.025C187.182 840.141 177.128 852.802 173.795 851.901C173.434 851.179 173.341 851.004 173.358 850.174C173.399 848.192 173.842 846.956 175.188 845.509C183.961 836.088 192.914 826.746 201.81 817.45L266.606 750.176L446.64 558.23L445.844 557.27L226.171 762.712C212.66 775.136 199.214 787.63 185.832 800.193C183.929 801.955 175.97 809.826 174.613 810.574L173.802 810.363C173.518 809.208 173.168 806.513 173.901 805.629C178.849 799.662 186.787 792.879 192.413 787.565C212.773 768.29 233.283 749.174 253.942 730.22L432.977 561.875L432.087 561.175L245.057 714.103C236.045 721.523 177.82 771.557 174.836 772.448C173.973 772.705 173.999 772.521 173.267 772.138C172.494 768.793 174.555 767.057 176.876 765.05C218.129 729.392 260.465 695.218 302.539 660.556L384.784 592.633C401.788 578.445 419.189 563.151 436.5 549.566L436.378 548.095C397.613 575.319 359.216 603.065 321.198 631.324L242.336 688.18L199.411 719.136C196.143 721.506 176.662 736.539 173.859 736.458C173.132 734.942 173.407 734.609 173.509 732.765C174.941 729.895 186.022 722.907 189.441 720.409L229.234 691.474L368.241 592.22C383.901 580.854 397.934 567.904 414.507 556.517L413.803 555.446C400.206 564.493 386.496 573.368 372.674 582.067C333.993 605.848 295.171 629.398 256.209 652.716L188.738 693.887C185.315 695.946 177.509 701.896 174.044 702.393C172.711 701.137 173.051 701.887 172.967 700.079C174.876 696.058 188.839 688.339 193.396 685.49C206.833 677.114 220.319 668.816 233.851 660.594C276.499 634.889 318.963 608.879 361.239 582.568C387.976 565.674 415.26 547.238 441.582 529.64L441.097 528.76C425.99 536.205 412.072 544.247 397.467 552.676C344.49 583.251 288.712 608.992 234.872 638.025C228.209 641.618 177.966 668.431 175.621 668.748C174.412 667.423 174.747 668.169 174.484 666.478C176.238 661.593 189.852 655.852 194.957 653.204L227.36 636.178C267.499 615.009 307.826 594.201 348.337 573.754C366.278 564.64 387.39 554.872 404.775 545.192L404.322 544.207C388.112 550.687 371.847 557.03 355.529 563.233L271.24 596.528L195.902 626.958C191.805 628.587 177.791 635.044 174.43 634.838C173.785 633.524 174.14 633.183 174.212 631.648C174.264 630.547 176.497 629.504 177.575 629.043C189.647 623.886 201.93 619.09 214.069 614.099C242.052 602.383 270.177 591.008 298.437 579.975L435.471 523.926L435.033 522.916C412.211 530.189 390.504 538.635 367.652 545.765C304.07 565.603 238.733 583.232 175.414 603.654C175.364 601.863 175.239 599.672 175.273 597.918C186.081 595.45 199.359 590.993 210.081 587.653C226.238 582.605 242.432 577.677 258.663 572.871L364.791 540.749C381.479 535.795 398.34 531.616 414.996 526.471L414.828 525.283C412.878 525.898 409.722 526.509 407.674 526.843C385.634 530.437 363.806 535.047 341.9 539.29L183.906 570.443C181.089 570.99 177.845 571.581 175.377 569.921C174.649 567.287 179.142 565.891 181.164 565.468C190.594 563.497 200.079 561.725 209.541 559.905L259.018 550.164L421.051 517.389L421.351 516.335C409.43 518.009 396.154 518.923 384.074 520.189C353.31 523.436 322.524 526.487 291.721 529.34L214.349 537.032C202.625 538.201 190.852 539.457 179.128 540.62C177.223 540.809 176.624 540.341 175.285 539.124C174.521 537.226 174.502 538.113 175.029 536.385C177.572 534.796 213.924 531.752 219.32 531.187C253.191 527.568 287.084 524.169 320.999 520.99C353.575 517.907 386.419 513.294 418.918 510.952L418.965 509.972C405.355 508.024 391.782 508.09 378.086 508.047L335.657 507.925C282.174 507.59 228.689 507.685 175.208 508.21L175.183 478.55L332.741 478.412C335.619 477.961 343.258 478.003 346.37 477.99L375.773 477.936C380.073 477.942 387.864 478.221 391.775 477.724L391.695 477.097C374.035 475.784 355.118 473.328 337.449 471.275C306.711 467.524 275.953 463.929 245.179 460.488L197.199 455.196C193.2 454.766 178.856 453.584 175.663 452.699C174.791 451.47 175.058 450.233 175.1 448.654C177.291 447.097 196.045 449.925 199.928 450.334C216.691 452.03 233.443 453.839 250.181 455.76L401.037 472.886C410.921 473.999 426.669 476.849 436.007 477.05L437.119 475.66C412.145 471.481 388.325 465.285 363.71 460.006C339.021 454.711 313.978 449.838 289.203 444.679L215.525 429.793C207.885 428.297 200.096 426.835 192.514 425.085C188.081 424.061 177.271 423.912 175.032 420.134C175.134 417.965 174.749 418.084 175.882 416.933C184.711 417.753 205.141 422.498 214.827 424.385C243.715 429.931 272.557 435.71 301.351 441.722C342.539 450.269 384.021 457.839 424.79 468.265C427.593 468.982 430.449 469.779 433.18 470.73L434.667 469.759C433.003 469.513 426.576 467.206 424.572 466.531C418.529 464.482 412.465 462.493 406.383 460.564L330.189 436.449C297.71 426.139 265.115 416.2 232.409 406.633L196.031 395.836C190.812 394.314 176.427 391.603 174.199 387.278C174.223 385.375 173.964 386.215 174.931 384.644C176.614 384.374 199.261 391.759 202.541 392.721C257.22 408.201 311.635 424.601 365.761 441.915C387.383 448.727 410.161 455.073 431.431 462.688L432.31 461.577C411.348 452.266 390.948 444.285 369.744 435.648C329.521 419.279 289.187 403.186 248.745 387.368L198.7 367.607C191.915 364.932 182.071 361.389 175.374 358.027C174.4 357.539 174.734 354.959 174.735 353.557L175.244 353.084C181.374 354.8 194.596 360.571 201.062 363.151L246.842 381.112L414.805 446.732L415.345 445.703L177.676 328.678C175.243 327.456 173.222 324.476 174.948 322.026C179.695 322.094 395.4 428.752 416.959 439.979L417.157 438.656C398.549 427.755 381.125 416.713 362.847 405.635C332.603 387.28 302.239 369.124 271.757 351.168C257.967 342.985 244.319 334.45 230.33 326.618C223.41 322.743 175.123 295.37 173.613 292.579C173.057 291.553 173.261 289.641 173.683 288.626C176.231 288.555 195.073 300.453 198.393 302.396L245.444 329.677C299.807 361.161 353.796 393.287 407.398 426.049L407.815 424.784C387.934 409.58 365.185 394.048 344.667 379.22C287.87 337.784 230.569 297.043 172.777 257.007C172.598 255.112 172.735 252.93 172.794 251.006C177.595 253.893 186.123 260.479 191.097 263.992C203.81 273.002 216.591 281.916 229.44 290.732C259.81 311.695 289.97 332.96 319.916 354.524C344.92 372.077 369.764 389.856 394.445 407.86C394.875 408.065 394.852 408.1 395.149 408.49L395.815 409.104L395.759 407.643C387.281 398.746 375.177 388.449 365.729 380.405L330.523 350.568L213.61 253.232C201.323 243.051 188.969 232.903 176.525 222.919C174.257 221.099 172.707 218.217 174.809 215.674C176.605 216.039 178.457 218.183 179.973 219.403L193.83 230.463C214.394 247.137 234.785 264.022 255.001 281.116L339.002 350.478C347.731 357.772 358.59 366.128 366.887 373.578L367.932 373.041C365.373 370.131 362.627 367.22 359.95 364.419C343.857 347.58 327.804 330.752 311.421 314.198L223.256 225.85C211.491 214.285 199.804 202.641 188.196 190.919C183.607 186.324 178.405 181.235 173.966 176.446C173.129 175.544 173.468 174.06 173.653 172.894C175.547 170.638 178.397 173.109 180.098 174.734C196.506 190.405 212.212 206.854 228.534 222.604C277.23 269.131 325.198 316.415 372.419 364.439L373.032 362.999C362.256 349.504 351.858 335.702 341.17 322.155C324.16 300.776 307.005 279.512 289.708 258.364C279.719 246.007 271.255 234.907 260.001 221.147C248.527 207.119 231.717 187.518 220.044 172.642C220.017 172.229 219.991 171.815 219.965 171.402L220.875 170.529C221.627 170.35 222.527 170.083 223.296 170.33C228.336 171.95 358.054 334.208 372.514 353.539L373.176 352.79C359.441 330.542 346.705 306.762 333.017 284.189L297.456 226.75C292.34 218.607 265.094 176.792 263.74 171.163C264.654 170.23 264.698 170.552 266.455 170.468C270.003 172.86 276.133 183.829 278.828 188.068L299.254 220.496C317.82 249.664 335.872 279.156 353.402 308.959C362.417 324.494 371.084 340.229 379.395 356.152L380.758 356.499C377.991 348.381 375.709 339.638 372.601 331.7C353.576 283.11 331.509 235.784 311.599 187.561C310.064 183.843 304.709 174.471 304.911 170.999C306.333 170.277 305.574 170.532 307.482 170.793C311.696 173.467 316.954 188.817 319.238 194.091C326.007 209.596 332.687 225.14 339.276 240.722C352.53 271.596 366.327 301.826 378.47 333.238C381.014 339.819 388.9 372.957 390.739 375.405C404.901 394.264 426.671 413.848 444.941 428.847C445.431 429.09 445.457 429.214 445.821 429.649L446.619 428.893C438.648 420.415 431.146 411.437 423.311 402.821C415.567 394.305 395.068 373.1 390.106 363.796C386.179 356.431 382.222 306.039 381.013 295.159C378.612 273.551 375.869 252.366 371.482 231.042C367.089 209.691 361.283 189.005 355.882 167.933Z"/><path fill="#BEB1AC" d="M684.114 478.075C678.846 478.757 660.103 478.526 653.925 478.473C646.197 478.407 628.465 479.007 621.429 478.197C622.847 477.223 627.173 477.221 629.127 477.126L629.5 477.818C633.03 478.209 638.811 477.956 642.586 477.949L669.946 477.919C673.741 477.92 680.492 477.747 684.114 478.075Z"/><path fill="#A3928B" d="M391.695 477.097C393.47 477.1 396.654 477.016 398.08 477.958C396.415 478.474 337.718 478.816 332.741 478.412C335.619 477.961 343.258 478.003 346.37 477.99L375.773 477.936C380.073 477.942 387.864 478.221 391.775 477.724L391.695 477.097Z"/><path fill="#A3928B" d="M592.323 562.232C587.213 557.479 582.388 554.632 578.251 548.996L578.281 548.947C577.953 548.844 592.678 560.778 593.191 561.273L592.323 562.232Z"/><path fill="#A3928B" d="M593.342 534.114C589.945 532.99 586.896 531.196 583.498 530.05C582.996 529.88 583.171 530.309 582.793 530.435L582.69 530.243C582.781 529.506 582.679 529.955 582.497 529.487C582.192 529.432 582.072 529.62 581.796 529.732L581.798 529.729C580.834 527.842 579.469 528.487 579.263 528.358C579.15 526.608 582.51 528.661 582.263 528.547C585.61 530.094 590.658 531.242 593.683 533.131L593.342 534.114Z"/><path fill="#BEB1AC" d="M510.334 739.29L511.101 739.495C510.665 747.689 511.326 759.826 510.579 767.238C510.131 762.512 510.997 745.3 509.705 743.03C509.767 741.825 510.063 740.459 510.334 739.29Z"/><path fill="#BEB1AC" d="M447.807 540.214C445.059 543.169 439.892 547.097 436.5 549.566L436.378 548.095C439.341 545.425 444.367 542.324 447.807 540.214Z"/><path fill="#D4CCC5" d="M434.236 578.866C435.367 577.452 440.576 572.066 441.889 571.292L441.89 571.296C441.984 571.349 442.078 571.403 442.171 571.457C442.098 572.26 436.074 578.881 435.042 580.042L434.236 578.866Z"/><path fill="#BEB1AC" d="M589.492 550.987C586.151 548.548 581.498 545.099 578.722 542.175C581.637 543.986 587.667 547.777 590.174 549.908L589.492 550.987Z"/><path fill="#A3928B" d="M445.844 557.27C446.716 556.36 452.564 550.461 453.191 550.404C453.255 550.456 453.3 550.481 453.267 550.571C452.617 552.308 447.838 557.075 446.64 558.23L445.844 557.27Z"/><path fill="#D4CCC5" d="M421.808 550.166L422.591 550.949C421.163 551.648 416.186 555.349 414.507 556.517L413.803 555.446C416.038 553.623 419.398 552.216 421.808 550.166Z"/><path fill="#D4CCC5" d="M459.352 754.73C461.121 753.109 465.739 750.609 467.967 749.438C466.649 750.63 465.287 751.771 463.882 752.86C462.418 754.017 460.699 755.201 459.189 756.331L459.352 754.73Z"/><path fill="#BEB1AC" d="M571.723 549.887C573.836 552.123 576.082 554.052 578.187 556.228L577.917 557.647C575.689 555.479 573.84 553.203 571.509 551.088L571.723 549.887Z"/><path fill="#A3928B" d="M434.667 469.759L435.109 469.939C436.096 470.334 442.836 472.386 442.712 473.208C442.366 473.582 434.407 471.04 433.18 470.73L434.667 469.759Z"/><path fill="#82706B" d="M600.321 509.406C599.822 509.466 598.658 509.722 598.445 509.023C598.464 508.957 598.485 508.787 598.598 508.778C602.168 508.487 611.485 508.324 614.577 508.558C611.303 509.042 607.262 509.08 603.938 509C602.679 509.113 601.573 509.221 600.321 509.406Z"/><path fill="#BEB1AC" d="M516.075 768.248C515.82 763.098 516.135 757.83 516.097 752.673C516.093 752.077 516.856 751.739 517.061 753.209L517.213 754.076C516.12 756.086 516.556 764.542 516.075 768.248Z"/><path fill="#A3928B" d="M578.098 566.667C579.881 568.253 584.028 572.295 585.237 574.23L584.779 575.173C582.266 572.509 580.173 569.664 578.098 566.667Z"/><path fill="#BEB1AC" d="M407.815 424.784C411.49 427.434 412.837 428.61 416.181 431.628C413.303 430.008 410.063 427.99 407.398 426.049L407.815 424.784Z"/><path fill="#6F5851" d="M437.054 557.115L437.563 556.528C438.505 555.419 441.932 552.597 443.226 552.279L443.201 552.253C444.202 552.911 438.218 557.28 437.467 557.842L437.054 557.115Z"/><path fill="#BEB1AC" d="M613.232 426.07C615.879 423.758 617.567 422.487 620.434 420.505L621.669 421.153C618.533 423.179 616.589 424.399 613.232 426.07Z"/><path fill="#A3928B" d="M415.345 445.703C417.687 446.373 421.694 448.62 423.911 449.784C419.826 448.79 418.617 448.084 414.805 446.732L415.345 445.703Z"/><path fill="#BEB1AC" d="M590.416 476.277C589.655 476.48 583.247 477.014 582.872 476.634L582.884 476.498C583.693 475.912 587.375 475.334 588.395 475.181C589.088 475.575 589.71 475.913 590.416 476.277Z"/><path fill="#BEB1AC" d="M437.119 475.66C439.635 475.867 442.527 476.226 445.042 476.528C441.501 476.887 439.595 477.04 436.007 477.05L437.119 475.66Z"/><path fill="#BEB1AC" d="M591.472 523.423L590.951 523.296C590.41 523.16 584.35 521.831 584.79 520.955C585.244 520.792 590.939 521.993 591.567 522.226L591.472 523.423Z"/><path fill="#BEB1AC" d="M432.087 561.175C433.436 559.747 435.328 558.037 437.054 557.115L437.467 557.842C435.96 559.151 434.505 560.65 432.977 561.875L432.087 561.175Z"/><path fill="#BEB1AC" d="M443.491 520.299C441.886 521.272 437.307 523.355 435.471 523.926L435.033 522.916L435.932 522.53C438.331 521.463 440.948 520.902 443.491 520.299Z"/><path fill="#6F5851" d="M421.808 550.166L422.628 549.65C423.357 549.186 426.751 545.73 427.561 546.669L427.457 546.666C427.162 547.824 423.617 550.224 422.591 550.949L421.808 550.166Z"/><path fill="#A3928B" d="M475.263 752.196C477.61 749.955 479.341 748.778 482.005 746.902C479.949 749.254 478.208 751.176 475.778 753.209L475.263 752.196Z"/><path fill="#D4CCC5" d="M547.028 750.28C548.505 751.348 550.01 752.375 551.459 753.469L551.103 755.113C549.495 753.752 548.101 752.306 546.486 750.995L547.028 750.28Z"/><path fill="#BEB1AC" d="M417.157 438.656C419.778 440.539 421.11 441.765 423.494 443.941C421.311 442.844 418.92 441.448 416.959 439.979L417.157 438.656Z"/><path fill="#D4CCC5" d="M475.263 752.196L475.778 753.209C474.401 754.383 473.163 755.643 471.722 756.722L471.788 755.189C472.382 754.443 474.4 752.934 475.263 752.196Z"/><path fill="#D4CCC5" d="M474.891 761.995C476.7 760.092 478.585 758.264 480.542 756.514C479.259 758.562 477.966 760.569 476.506 762.499L474.891 761.995Z"/><path fill="#BEB1AC" d="M652.114 375.078L654.612 374.571C653.017 375.995 651.323 377.305 649.543 378.49C648.872 378.936 648.198 379.418 647.536 379.88C648.926 378.299 650.544 376.488 652.114 375.078Z"/><path fill="#D4CCC5" d="M411.142 541.321C408.991 542.948 407.506 543.863 405.053 545.054L404.775 545.192L404.322 544.207C406.116 543.16 409.114 542.114 411.142 541.321Z"/><path fill="#A3928B" d="M421.351 516.335C423.023 515.701 425.82 515.769 427.605 515.739C424.656 516.591 424.166 517.023 421.051 517.389L421.351 516.335Z"/><path fill="#D4CCC5" d="M631.636 571.688C632.979 572.638 634.272 573.365 635.646 574.258L634.991 575.489C633.542 574.373 632.486 573.528 630.966 572.45L631.636 571.688Z"/><path fill="#D4CCC5" d="M373.032 362.999C376.487 367.325 377.067 369.335 372.419 364.439L373.032 362.999Z"/><path fill="#BEB1AC" d="M522.296 749.918C522.025 748.764 521.717 747.651 521.392 746.511L520.172 742.211C521.138 743.962 522.577 746.247 523.184 748.113L522.296 749.918Z"/><path fill="#6F5851" d="M576.281 430.926L575.294 433.316C574.674 434.018 573.378 435.454 572.349 435.39L572.32 435.278C572.738 433.86 575.153 431.821 576.281 430.926Z"/><path fill="#D4CCC5" d="M432.31 461.577C435.06 462.794 436.452 463.494 439.035 465.033C436.434 464.3 433.989 463.445 431.431 462.688L432.31 461.577Z"/><path fill="#BEB1AC" d="M653.693 363.621C649.187 368.436 648.171 367.598 652.822 362.879L653.693 363.621Z"/><path fill="#D4CCC5" d="M598.131 515.696C599.875 515.948 601.164 516.038 602.911 516.416L602.111 517.349C600.204 517.082 598.517 516.75 596.651 516.457L598.131 515.696Z"/><path fill="#D4CCC5" d="M624.247 408.635L624.561 410.034C622.52 411.608 621.414 412.173 619.157 413.466C620.902 411.739 622.414 410.275 624.247 408.635Z"/><path fill="#D4CCC5" d="M578.91 428.257L579.907 428.737C578.332 430.425 576.888 431.548 575.294 433.316L576.281 430.926C576.854 430.452 577.012 430.323 577.527 429.766L578.91 428.257Z"/><path fill="#A3928B" d="M414.828 525.283C417.356 524.689 419.321 524.485 421.862 524.167C419.422 525.068 417.489 525.755 414.996 526.471L414.828 525.283Z"/><path fill="#D4CCC5" d="M562.49 753.502C561.808 752.991 559.568 751.476 559.342 750.81C559.603 749.986 562.912 752.204 563.317 752.444L562.49 753.502Z"/><path fill="#BEB1AC" d="M546.253 760.691C542.337 756.192 543.4 756.158 547.112 759.908L546.253 760.691Z"/><path fill="#D4CCC5" d="M446.619 428.893C447.686 429.985 448.597 431.088 449.653 432.178L448.838 432.639C447.843 431.595 446.82 430.684 445.821 429.649L446.619 428.893Z"/><path fill="#82706B" d="M565.493 746.963C564.525 746.63 563.985 746.78 563.603 746.629C563.576 746.45 563.549 746.271 563.522 746.091C562.94 745.833 562.679 746.007 562.144 745.86C560.895 743.505 565.968 746.23 566.048 746.277L565.493 746.963Z"/><path fill="#D4CCC5" d="M603.894 439.291C604.575 438.87 605.255 438.444 605.931 438.015C607.315 437.118 608.232 436.472 609.722 435.737L610.178 436.749C607.944 437.873 606.254 438.491 603.894 439.291Z"/><path fill="#D4CCC5" d="M605.274 447.724C604.47 448.059 602.448 449.06 601.666 448.969C599.632 448.731 604.163 446.922 604.078 446.957L605.274 447.724Z"/><path fill="#BEB1AC" d="M566.048 746.277C567.421 747.006 568.721 747.499 570.09 748.227L569.489 749.001C568.009 748.355 566.967 747.605 565.493 746.963L566.048 746.277Z"/><path fill="#D4CCC5" d="M395.759 407.643C397.705 409.251 398.98 410.691 400.698 412.519C398.86 411.366 397.42 410.575 395.815 409.104L395.759 407.643Z"/><path fill="#BEB1AC" d="M528.7 746.604C530.069 748.395 531.276 749.922 532.484 751.839L532.768 752.281L531.836 752.428C530.655 750.92 529.592 748.399 528.7 746.604Z"/><path fill="#D4CCC5" d="M652.491 351.606L653.675 352.109C653.137 352.706 651.399 354.848 650.741 355.133C650.619 355.097 650.673 355.133 650.587 355.017C650.54 354.61 650.855 354.135 651.071 353.805L652.491 351.606Z"/><path fill="#D4CCC5" d="M367.932 373.041C369.69 374.784 370.561 375.839 372.091 377.795C370.301 376.388 368.553 375.136 366.887 373.578L367.932 373.041Z"/><path fill="#BEB1AC" d="M610.896 533.164C605.724 530.84 607.89 530.787 611.5 532.234L610.896 533.164Z"/><path fill="#82706B" d="M546.486 750.995C545.983 750.593 543.669 748.849 543.847 748.201C544.362 747.708 546.682 749.928 547.028 750.28L546.486 750.995Z"/><path fill="#82706B" d="M630.966 572.45C625.522 569.36 629.754 569.566 631.636 571.688L630.966 572.45Z"/><path fill="#6F5851" d="M587.513 538.929C587.152 538.734 586.787 538.546 586.42 538.363C583.94 537.146 584.771 536.09 587.883 538.137L587.513 538.929Z"/><path fill="#BEB1AC" d="M587.883 538.137C588.848 538.627 589.83 539.057 590.686 539.722L590.25 540.699C589.242 540.004 588.591 539.533 587.513 538.929L587.883 538.137Z"/><path fill="#D4CCC5" d="M441.097 528.76C441.694 528.388 443.301 527.252 444.047 527.714C444.088 528.347 441.993 529.409 441.582 529.64L441.097 528.76Z"/><path fill="#82706B" d="M596.651 516.457C595.953 516.357 594.774 516.357 594.308 515.725C594.833 515.143 597.374 515.515 598.131 515.696L596.651 516.457Z"/><path fill="#6F5851" d="M571.509 551.088C571.363 550.929 571.216 550.77 571.07 550.611C569.088 548.669 568.853 546.836 571.723 549.887L571.509 551.088Z"/><path fill="#BEB1AC" d="M379.395 356.152L380.758 356.499C380.84 356.864 381.44 358.689 381.148 359.095C380.387 358.92 379.632 356.757 379.395 356.152Z"/><path fill="#BEB1AC" d="M373.176 352.79C374.976 354.983 374.879 356.7 372.514 353.539L373.176 352.79Z"/><path fill="#BEB1AC" d="M503.199 743.066C505.23 739.601 504.994 740.817 504.23 744.2L503.199 743.066Z"/><path fill="#6F5851" d="M423.041 509.935C423.428 509.95 424.144 509.889 424.435 510.2C424.432 510.236 424.429 510.271 424.426 510.306C423.714 510.922 421.747 510.976 420.821 511.013C421.667 510.558 422.151 510.279 423.041 509.935Z"/><path fill="#A3928B" d="M449.653 432.178C452.326 434.715 451.312 435.071 448.838 432.639L449.653 432.178Z"/><path fill="#6F5851" d="M510.334 739.29C510.401 738.522 510.318 737.17 511.133 736.803C511.794 737.063 511.194 739.055 511.101 739.495L510.334 739.29Z"/><path fill="#BEB1AC" d="M418.965 509.972C420.436 510.012 421.574 509.987 423.041 509.935C422.151 510.279 421.667 510.558 420.821 511.013C420.168 510.983 419.573 510.952 418.918 510.952L418.965 509.972Z"/><path fill="#D4CCC5" d="M591.248 462.236C590.803 462.354 588.747 463.123 588.377 462.716L588.39 462.591C588.733 462.106 589.663 461.673 590.17 461.386L591.248 462.236Z"/><path fill="#D4CCC5" d="M600.321 509.406C601.573 509.221 602.679 509.113 603.938 509L604.009 509.989C602.775 509.831 601.545 509.637 600.321 509.406Z"/><path fill="white" d="M478.807 538.431C479.881 540.062 478.978 600.548 478.929 608.131L478.548 731.071C469.113 734.486 457.266 740.307 447.788 744.434L379.614 774.584C331.033 796.308 281.821 817.152 233.546 839.489L233.232 839.204C233.526 837.649 233.312 838.27 234.399 836.907C250.177 817.374 266.108 797.966 282.191 778.684L363.13 679.146C385.647 650.698 408.46 622.484 431.564 594.51C446.254 576.491 463.079 555.364 478.807 538.431Z"/><path fill="white" d="M544.185 537.325C545.692 538.52 553.658 548.081 555.327 550.04C564.819 561.141 574.205 572.331 583.485 583.61L703.814 732.185L753.77 793.635C761.588 803.081 769.329 812.591 776.991 822.165C779.479 825.232 788.467 835.687 789.747 838.779C784.115 836.647 773.816 831.46 767.685 828.753L704.393 800.443L544.494 729.48L544.185 537.325Z"/><path fill="white" d="M417.748 335.247C417.705 333.86 417.42 333.49 418.08 332.673L419.11 334.02C434.992 357.473 463.17 361.67 487.768 349.417L501.623 384.178C504.264 390.884 507.404 399.753 510.333 406.161L534.124 348.546C557.89 360.082 588.574 360.363 604.352 336.021L605.409 334.045L605.828 334.156C605.779 335.356 605.764 336.176 605.588 337.369C605.059 340.435 604.256 351.585 603.048 353.233C596.578 362.061 586.827 372.724 579.601 380.941C557.131 406.453 534.504 431.825 511.722 457.057C510.458 455.412 508.968 453.538 507.585 451.991C487.124 429.13 466.992 405.979 446.859 382.827C438.11 372.767 429.689 362.084 420.653 352.315C419.995 348.335 418.81 338.597 417.748 335.247Z"/><path fill="white" d="M509.589 202.591C515.594 201.627 565.115 215.611 575.46 218.164C554.394 232.42 531.199 249.098 513.338 267.365L513.115 267.568C511.079 267.902 504.498 260.908 502.574 259.101C485.046 242.639 468.057 230.842 447.795 218.243L509.589 202.591Z"/><path fill="white" d="M457.359 266.872C473.788 265.276 488.406 277.286 490.029 293.713C491.651 310.14 479.665 324.777 463.241 326.427C446.779 328.08 432.1 316.06 430.474 299.595C428.848 283.13 440.892 268.471 457.359 266.872Z"/><path fill="white" d="M560.018 266.885C576.373 264.969 591.2 276.634 593.187 292.98C595.173 309.327 583.573 324.204 567.236 326.262C550.797 328.333 535.808 316.645 533.809 300.198C531.81 283.75 543.563 268.812 560.018 266.885Z"/><path fill="white" d="M400.346 222.001C403.531 223.468 408.469 226.747 411.71 228.576C418.882 232.622 426.156 236.623 433.151 240.96C427.002 245.277 422.356 248.773 417.607 254.826C413.141 260.533 411.619 264.57 408.146 270.458C407.447 265.615 406.827 260.848 406.091 255.997L405.095 249.747C403.644 240.41 401.976 231.291 400.346 222.001Z"/><path fill="white" d="M591.25 241.509C602.135 234.675 613.199 229.21 624.479 221.971C624.173 223.48 623.818 224.985 623.556 226.503C623.046 229.509 622.486 232.506 621.878 235.494C620.353 243.288 617.113 260.667 617.294 268.206L617.119 269.093C616.71 271.358 616.006 269.65 615.507 268.577L615.415 268.382C610.927 256.751 601.468 248.064 591.25 241.509Z"/><path fill="white" d="M511.879 329.344C513.364 330.52 515.608 333.365 517.056 334.926C522.275 340.549 527.595 344.783 534.269 348.545C526.134 348.033 520.827 348.32 512.75 348.402L488.805 348.494C500.734 342.167 502.934 338.741 511.879 329.344Z"/></svg>